<?xml version="1.0" encoding="utf-8"?>
<!-- Generator: Adobe Illustrator 21.1.0, SVG Export Plug-In . SVG Version: 6.00 Build 0)  -->
<svg version="1.1" id="Layer_1" xmlns="http://www.w3.org/2000/svg" xmlns:xlink="http://www.w3.org/1999/xlink" x="0px" y="0px"
	 viewBox="0 0 238.6 70" style="enable-background:new 0 0 238.6 70;" xml:space="preserve">
<style type="text/css">
	.st0{fill:#FFFFFF;}
	.st1{fill:#BD1823;}
</style>
<g>
	<path class="st0" d="M59.8,17.9h7.8v12.6h4.5V17.9h7.8v33.8h-7.8V37.3h-4.5v14.4h-7.8V17.9z"/>
	<path class="st0" d="M88.2,17.9h10.3l6.3,33.8h-8.2l-0.7-6h-5.5l-0.8,6h-7.8L88.2,17.9z M91.3,39.7h3.9l-1.8-16.5h-0.1L91.3,39.7z"
		/>
	<path class="st0" d="M106.8,17.9h8.5l6.3,19.9h0.1V17.9h7.5v33.8h-8.5l-6.3-20.9h-0.1v20.9h-7.5V17.9z"/>
	<path class="st0" d="M139.9,40.2v2.5c0,1.1,0.2,1.9,0.6,2.6c0.4,0.6,1.1,1,2.1,1c0.8,0,1.5-0.2,2-0.7c0.5-0.5,0.7-1.1,0.7-1.9
		c0-1.2-0.5-2.3-1.4-3.3c-0.9-0.9-2.3-2.1-4.1-3.4c-0.1-0.1-0.4-0.3-0.7-0.5c-0.5-0.4-0.8-0.6-1-0.8c-0.9-0.7-1.6-1.3-2.2-1.8
		c-0.6-0.5-1.1-1.1-1.5-1.7c-0.5-0.6-0.8-1.4-1.1-2.3c-0.3-0.9-0.4-1.8-0.4-2.9c0-3.2,0.9-5.6,2.6-7.2c1.7-1.5,4.2-2.3,7.4-2.3
		c3.3,0,5.7,0.7,7.3,2.2c1.6,1.5,2.4,3.6,2.4,6.3v3h-7.3v-1.8c0-1.1-0.2-2-0.5-2.7c-0.3-0.7-1-1-2-1c-0.8,0-1.5,0.2-1.9,0.7
		c-0.5,0.5-0.7,1.1-0.7,1.9c0,0.8,0.5,1.7,1.5,2.7c1,0.9,2.5,2.2,4.4,3.6l0.6,0.4c0.3,0.3,0.8,0.6,1.4,1.1c0.9,0.7,1.6,1.3,2.1,1.8
		c0.5,0.5,1,1.1,1.5,1.9c0.5,0.7,0.8,1.6,1.1,2.6c0.3,1,0.4,2.2,0.4,3.6c0,0.9-0.2,1.8-0.5,2.8c-0.4,1-1,1.9-1.8,2.8
		c-0.8,0.9-1.9,1.6-3.3,2.2c-1.4,0.6-3,0.8-4.9,0.8c-1.8,0-3.4-0.3-4.7-0.8c-1.3-0.5-2.3-1.2-3.1-2c-0.8-0.8-1.4-1.7-1.7-2.7
		c-0.4-1-0.5-1.9-0.5-2.9v-3.6H139.9z"/>
	<path class="st0" d="M166.8,27.1c0-3.2,0.9-5.6,2.7-7.3c1.8-1.7,4.3-2.5,7.3-2.5c3,0,5.4,0.8,7.3,2.5c1.8,1.7,2.7,4.1,2.7,7.3v3.1
		h-7.8v-3.8c0-0.4,0-0.8,0-1.1c0-0.3-0.1-0.6-0.3-0.9c-0.1-0.3-0.4-0.6-0.7-0.8c-0.3-0.2-0.7-0.3-1.3-0.3c-0.5,0-1,0.1-1.3,0.3
		c-0.3,0.2-0.5,0.5-0.7,0.8c-0.1,0.3-0.2,0.6-0.3,0.9c0,0.3,0,0.7,0,1.1v16.7c0,0.3,0,0.7,0,1c0,0.3,0.1,0.6,0.3,1
		c0.1,0.3,0.4,0.6,0.7,0.8c0.3,0.2,0.7,0.3,1.3,0.3c0.5,0,1-0.1,1.3-0.3c0.3-0.2,0.5-0.5,0.7-0.8c0.1-0.3,0.2-0.7,0.3-1
		c0-0.3,0-0.6,0-1v-4.9h7.8v4.3c0,3-0.9,5.4-2.7,7.1c-1.8,1.7-4.2,2.6-7.3,2.6s-5.5-0.9-7.3-2.6c-1.8-1.7-2.7-4.1-2.7-7.1V27.1z"/>
	<path class="st0" d="M214.8,32.9c-0.2,2.2-0.6,4.3-1.3,6.4c-0.7,2.1-1.6,3.8-2.8,5.2l4,7.2h-7.5l-1.1-2.1c-0.9,0.8-1.9,1.5-3.2,1.9
		c-1.2,0.5-2.5,0.7-3.8,0.7c-1.9,0-3.5-0.4-4.7-1.1c-1.2-0.7-2.1-1.7-2.7-2.8c-0.6-1.1-0.9-2.2-1.1-3.2c-0.2-1.1-0.2-2.1-0.2-3
		c0-0.7,0.1-1.6,0.4-2.5c0.3-0.9,0.7-1.8,1.2-2.8c0.5-0.9,1.2-1.8,2-2.6c0.8-0.8,1.7-1.4,2.6-1.9l0-0.1c-0.9-1.5-1.6-2.8-2.1-3.9
		c-0.5-1.1-0.7-2.2-0.7-3.4c0-2.2,0.7-4,2.2-5.2c1.5-1.2,3.3-1.9,5.6-1.9c2.3,0,4.1,0.5,5.6,1.6c1.4,1.1,2.2,2.7,2.2,4.9
		c0,1.6-0.5,3.2-1.4,4.8c-0.9,1.5-2.1,2.8-3.5,3.9l3,5.3c0.1,0,0.2-0.2,0.3-0.6c0.1-0.4,0.3-0.9,0.5-1.5c0.2-0.6,0.3-1.2,0.5-1.8
		c0.1-0.6,0.2-1.1,0.2-1.5H214.8z M199.6,37.5c-0.8,1-1.4,1.8-1.8,2.5c-0.4,0.7-0.5,1.5-0.5,2.6c0,1,0.3,1.8,0.9,2.6
		c0.6,0.8,1.4,1.1,2.3,1.1c0.5,0,1.1-0.1,1.6-0.4c0.5-0.2,1-0.6,1.5-1L199.6,37.5z M200.2,24.6c0,0.4,0.1,0.9,0.4,1.4
		c0.3,0.5,0.6,1.1,0.9,1.7c0.1,0.1,0.2,0.3,0.2,0.4c0.6-0.6,1.1-1.1,1.4-1.6c0.4-0.5,0.5-1.1,0.5-1.7c0-0.6-0.1-1.1-0.4-1.4
		c-0.3-0.3-0.7-0.5-1.3-0.5C200.8,22.9,200.2,23.4,200.2,24.6z"/>
	<path class="st0" d="M218.5,27.1c0-3.2,0.9-5.6,2.7-7.3c1.8-1.7,4.3-2.5,7.3-2.5s5.4,0.8,7.3,2.5c1.8,1.7,2.7,4.1,2.7,7.3v3.1h-7.8
		v-3.8c0-0.4,0-0.8,0-1.1c0-0.3-0.1-0.6-0.3-0.9c-0.1-0.3-0.4-0.6-0.7-0.8c-0.3-0.2-0.7-0.3-1.3-0.3c-0.5,0-1,0.1-1.3,0.3
		c-0.3,0.2-0.5,0.5-0.7,0.8c-0.1,0.3-0.2,0.6-0.3,0.9c0,0.3,0,0.7,0,1.1v16.7c0,0.3,0,0.7,0,1c0,0.3,0.1,0.6,0.3,1
		c0.1,0.3,0.4,0.6,0.7,0.8c0.3,0.2,0.7,0.3,1.3,0.3c0.5,0,1-0.1,1.3-0.3c0.3-0.2,0.5-0.5,0.7-0.8c0.1-0.3,0.2-0.7,0.3-1
		c0-0.3,0-0.6,0-1v-4.9h7.8v4.3c0,3-0.9,5.4-2.7,7.1c-1.8,1.7-4.2,2.6-7.3,2.6c-3.1,0-5.5-0.9-7.3-2.6c-1.8-1.7-2.7-4.1-2.7-7.1
		V27.1z"/>
</g>
<path class="st1" d="M28,0c-8,0-28,0-28,0v62.7c0,0,5.6,0.8,7.8-10.9V8.8l12.2,0v15.9c0,0,0.8,5.2,8,7.3V0z"/>
<path class="st0" d="M18,70c8,0,26,0,26,0V10.1c0,0-5.7-1.2-8,10.5l0,40.5l-10,0L26,49c0,0-0.8-7.6-8-9.8V70z"/>
</svg>
